<?xml version="1.0" encoding="UTF-8" standalone="no"?>
<!-- Created with Inkscape (http://www.inkscape.org/) -->

<svg version="1.1" id="svg35214" xml:space="preserve" width="1040" height="536.34851" viewBox="0 0 1040 536.34851" xmlns="http://www.w3.org/2000/svg" xmlns:svg="http://www.w3.org/2000/svg"><defs id="defs35218"><linearGradient x1="0" y1="0" x2="1" y2="0" gradientUnits="userSpaceOnUse" gradientTransform="matrix(-86.434104,149.70819,149.70819,86.434104,176.62348,665.5545)" spreadMethod="pad" id="linearGradient85518"><stop style="stop-opacity:1;stop-color:#400000" offset="0" id="stop85514" /><stop style="stop-opacity:1;stop-color:#c42b06" offset="1" id="stop85516" /></linearGradient><linearGradient x1="0" y1="0" x2="1" y2="0" gradientUnits="userSpaceOnUse" gradientTransform="matrix(4.0519141,-33.934452,-33.934452,-4.0519141,24.527229,825.52581)" spreadMethod="pad" id="linearGradient85544"><stop style="stop-opacity:1;stop-color:#c42b06" offset="0" id="stop85540" /><stop style="stop-opacity:1;stop-color:#860001" offset="1" id="stop85542" /></linearGradient><linearGradient x1="0" y1="0" x2="1" y2="0" gradientUnits="userSpaceOnUse" gradientTransform="matrix(-50.219615,5.2785989,5.2785989,50.219615,292.18828,813.32539)" spreadMethod="pad" id="linearGradient85574"><stop style="stop-opacity:1;stop-color:#fbc100" offset="0" id="stop85566" /><stop style="stop-opacity:1;stop-color:#eb6527" offset="0.194885" id="stop85568" /><stop style="stop-opacity:1;stop-color:#c42b06" offset="0.719086" id="stop85570" /><stop style="stop-opacity:1;stop-color:#c42b06" offset="1" id="stop85572" /></linearGradient><linearGradient x1="0" y1="0" x2="1" y2="0" gradientUnits="userSpaceOnUse" gradientTransform="matrix(-28.385547,0,0,28.385547,29.393285,738.19403)" spreadMethod="pad" id="linearGradient85600"><stop style="stop-opacity:1;stop-color:#620000" offset="0" id="stop85596" /><stop style="stop-opacity:1;stop-color:#990003" offset="1" id="stop85598" /></linearGradient><linearGradient x1="0" y1="0" x2="1" y2="0" gradientUnits="userSpaceOnUse" gradientTransform="matrix(33.287322,71.384408,71.384408,-33.287322,273.47619,734.05659)" spreadMethod="pad" id="linearGradient85632"><stop style="stop-opacity:1;stop-color:#400000" offset="0" id="stop85622" /><stop style="stop-opacity:1;stop-color:#620000" offset="0.345428" id="stop85624" /><stop style="stop-opacity:1;stop-color:#af1505" offset="0.711533" id="stop85626" /><stop style="stop-opacity:1;stop-color:#ec6527" offset="0.827789" id="stop85628" /><stop style="stop-opacity:1;stop-color:#fbc100" offset="1" id="stop85630" /></linearGradient><linearGradient x1="0" y1="0" x2="1" y2="0" gradientUnits="userSpaceOnUse" gradientTransform="matrix(0.37949625,30.776685,30.776685,-0.37949625,145.14625,811.65625)" spreadMethod="pad" id="linearGradient85658"><stop style="stop-opacity:1;stop-color:#990003" offset="0" id="stop85654" /><stop style="stop-opacity:1;stop-color:#d83e07" offset="1" id="stop85656" /></linearGradient><linearGradient x1="0" y1="0" x2="1" y2="0" gradientUnits="userSpaceOnUse" gradientTransform="matrix(0.25770726,20.904796,20.904796,-0.25770726,391.34466,821.1299)" spreadMethod="pad" id="linearGradient85828"><stop style="stop-opacity:1;stop-color:#c42b06" offset="0" id="stop85824" /><stop style="stop-opacity:1;stop-color:#af1505" offset="1" id="stop85826" /></linearGradient><linearGradient x1="0" y1="0" x2="1" y2="0" gradientUnits="userSpaceOnUse" gradientTransform="matrix(0.25885321,21.012078,21.012078,-0.25885321,387.44241,800.0083)" spreadMethod="pad" id="linearGradient85856"><stop style="stop-opacity:1;stop-color:#860001" offset="0" id="stop85850" /><stop style="stop-opacity:1;stop-color:#4f0000" offset="0.998657" id="stop85852" /><stop style="stop-opacity:1;stop-color:#4f0000" offset="1" id="stop85854" /></linearGradient><linearGradient x1="0" y1="0" x2="1" y2="0" gradientUnits="userSpaceOnUse" gradientTransform="matrix(0.25503503,20.692904,20.692904,-0.25503503,401.72356,757.87043)" spreadMethod="pad" id="linearGradient85884"><stop style="stop-opacity:1;stop-color:#af1505" offset="0" id="stop85878" /><stop style="stop-opacity:1;stop-color:#990003" offset="0.587372" id="stop85880" /><stop style="stop-opacity:1;stop-color:#860001" offset="1" id="stop85882" /></linearGradient><linearGradient x1="0" y1="0" x2="1" y2="0" gradientUnits="userSpaceOnUse" gradientTransform="matrix(0.25617849,20.772698,20.772698,-0.25617849,416.32198,736.60746)" spreadMethod="pad" id="linearGradient85912"><stop style="stop-opacity:1;stop-color:#860001" offset="0" id="stop85906" /><stop style="stop-opacity:1;stop-color:#4f0000" offset="0.998657" id="stop85908" /><stop style="stop-opacity:1;stop-color:#4f0000" offset="1" id="stop85910" /></linearGradient><linearGradient x1="0" y1="0" x2="1" y2="0" gradientUnits="userSpaceOnUse" gradientTransform="matrix(0.26534362,21.526346,21.526346,-0.26534362,406.96593,694.16359)" spreadMethod="pad" id="linearGradient85940"><stop style="stop-opacity:1;stop-color:#af1505" offset="0" id="stop85934" /><stop style="stop-opacity:1;stop-color:#990003" offset="0.587372" id="stop85936" /><stop style="stop-opacity:1;stop-color:#860001" offset="1" id="stop85938" /></linearGradient><linearGradient x1="0" y1="0" x2="1" y2="0" gradientUnits="userSpaceOnUse" gradientTransform="matrix(0.26572394,21.484349,21.484349,-0.26572394,396.31681,673.06526)" spreadMethod="pad" id="linearGradient85968"><stop style="stop-opacity:1;stop-color:#860001" offset="0" id="stop85962" /><stop style="stop-opacity:1;stop-color:#4f0000" offset="0.998657" id="stop85964" /><stop style="stop-opacity:1;stop-color:#4f0000" offset="1" id="stop85966" /></linearGradient><linearGradient x1="0" y1="0" x2="1" y2="0" gradientUnits="userSpaceOnUse" gradientTransform="matrix(12.653595,40.419884,40.419884,-12.653595,444.98987,765.46326)" spreadMethod="pad" id="linearGradient86000"><stop style="stop-opacity:1;stop-color:#620000" offset="0" id="stop85994" /><stop style="stop-opacity:1;stop-color:#620000" offset="0.262924" id="stop85996" /><stop style="stop-opacity:1;stop-color:#4f0000" offset="1" id="stop85998" /></linearGradient><linearGradient x1="0" y1="0" x2="1" y2="0" gradientUnits="userSpaceOnUse" gradientTransform="matrix(-35.239784,12.76737,12.76737,35.239784,481.60363,814.92398)" spreadMethod="pad" id="linearGradient86030"><stop style="stop-opacity:1;stop-color:#fbc100" offset="0" id="stop86022" /><stop style="stop-opacity:1;stop-color:#ec6527" offset="0.352158" id="stop86024" /><stop style="stop-opacity:1;stop-color:#c42b06" offset="0.763443" id="stop86026" /><stop style="stop-opacity:1;stop-color:#c42b06" offset="1" id="stop86028" /></linearGradient><linearGradient x1="0" y1="0" x2="1" y2="0" gradientUnits="userSpaceOnUse" gradientTransform="matrix(27.852954,59.731479,59.731479,-27.852954,460.55209,751.66401)" spreadMethod="pad" id="linearGradient86060"><stop style="stop-opacity:1;stop-color:#620000" offset="0" id="stop86052" /><stop style="stop-opacity:1;stop-color:#af1505" offset="0.711533" id="stop86054" /><stop style="stop-opacity:1;stop-color:#ec6527" offset="0.827789" id="stop86056" /><stop style="stop-opacity:1;stop-color:#fbc100" offset="1" id="stop86058" /></linearGradient><linearGradient x1="0" y1="0" x2="1" y2="0" gradientUnits="userSpaceOnUse" gradientTransform="matrix(35.363102,12.813183,-12.813183,35.363102,311.57044,751.5937)" spreadMethod="pad" id="linearGradient86092"><stop style="stop-opacity:1;stop-color:#d83e07" offset="0" id="stop86086" /><stop style="stop-opacity:1;stop-color:#af1505" offset="0.763443" id="stop86088" /><stop style="stop-opacity:1;stop-color:#af1505" offset="1" id="stop86090" /></linearGradient><linearGradient x1="0" y1="0" x2="1" y2="0" gradientUnits="userSpaceOnUse" gradientTransform="matrix(-12.632597,40.355743,-40.355743,-12.632597,348.09012,702.25033)" spreadMethod="pad" id="linearGradient86124"><stop style="stop-opacity:1;stop-color:#620000" offset="0" id="stop86118" /><stop style="stop-opacity:1;stop-color:#620000" offset="0.262924" id="stop86120" /><stop style="stop-opacity:1;stop-color:#4f0000" offset="1" id="stop86122" /></linearGradient><linearGradient x1="0" y1="0" x2="1" y2="0" gradientUnits="userSpaceOnUse" gradientTransform="matrix(-27.857535,59.741788,-59.741788,-27.857535,332.48111,688.45133)" spreadMethod="pad" id="linearGradient86152"><stop style="stop-opacity:1;stop-color:#620000" offset="0" id="stop86146" /><stop style="stop-opacity:1;stop-color:#af1505" offset="0.711533" id="stop86148" /><stop style="stop-opacity:1;stop-color:#e94f0a" offset="1" id="stop86150" /></linearGradient></defs><g id="g35220" transform="matrix(1.3333333,0,0,-1.3333333,-3.8677201e-4,1122.5199)"><g id="g115645" transform="matrix(1.620523,0,0,1.620523,-1.8000068e-4,-522.41206)"><path d="m 51.343076,811.50463 -20.942452,-20.9925 v -98.00667 l 115.246036,-63.87823 114.62052,63.87823 v 98.00667 l -20.96747,20.9925 z" style="fill:url(#linearGradient85518);stroke:none;stroke-width:25.0209" id="path85520" /><path d="M 2.90079e-4,803.12264 30.400624,790.51213 l 20.942452,20.9925 -12.585488,30.37531 z" style="fill:url(#linearGradient85544);stroke:none;stroke-width:25.0209" id="path85546" /><path d="m 239.29971,811.50463 20.96747,-20.9925 30.42536,12.61051 -38.78232,38.7573 z" style="fill:url(#linearGradient85574);stroke:none;stroke-width:25.0209" id="path85576" /><path d="M 2.90079e-4,673.2394 30.400624,692.50546 v 98.00667 L 2.90079e-4,803.12264 Z" style="fill:url(#linearGradient85600);stroke:none;stroke-width:25.0209" id="path85602" /><path d="m 260.26718,790.51213 v -98.00667 l 30.42536,-19.26606 v 129.88324 0 h -0.025 z" style="fill:url(#linearGradient85632);stroke:none;stroke-width:25.0209" id="path85634" /><path d="m 38.782609,841.87994 v -0.025 L 51.343076,811.50463 H 239.29971 l 12.61051,30.37531 z" style="fill:url(#linearGradient85658);stroke:none;stroke-width:25.0209" id="path85660" /><path d="M 145.61664,593.66059 0.02030676,673.25191 30.39562,692.49295 145.61664,629.86576 Z" style="fill:#3a0000;fill-opacity:1;fill-rule:nonzero;stroke:none;stroke-width:25.0209" id="path85664" /><path d="m 145.61664,593.66059 145.07089,79.59132 -30.37531,19.24104 -114.69558,-62.62719 z" style="fill:#4f0000;fill-opacity:1;fill-rule:nonzero;stroke:none;stroke-width:25.0209" id="path85668" /><path d="m 260.30471,790.52464 -20.99249,20.96748 -44.28691,-44.28691 h -5.32944 v 44.28691 H 51.380608 L 30.388114,790.52464 V 757.4721 l 20.667223,-20.69225 h 60.900753 l 3.02752,-2.97748 v -7.93161 l -3.02752,-3.0025 H 30.388114 V 692.49295 H 124.6917 l 20.66722,20.69224 v 33.32778 L 124.6917,767.20521 H 63.815971 l -3.052544,3.0025 v 7.88157 l 3.052544,3.05254 h 95.454549 v -88.64887 h 30.42535 v 44.2869 h 6.10509 l 44.31193,-44.2869 h 20.19182 v 22.9191 l -37.10592,37.00584 z" style="fill:white;fill-opacity:1;fill-rule:nonzero;stroke:none;stroke-width:25.0209" id="path85672" /><path d="m 51.370599,811.51213 1.150959,-2.80233 H 186.88353 l 2.82735,2.80233 z" style="fill:#68676c;fill-opacity:1;fill-rule:nonzero;stroke:none;stroke-width:25.0209" id="path85676" /><path d="m 52.226312,739.63223 -1.17598,-2.85238 h 60.900748 l 1.15096,2.85238 z" style="fill:white;fill-opacity:1;fill-rule:nonzero;stroke:none;stroke-width:25.0209" id="path85680" /><path d="m 63.823477,767.21772 -1.226022,-2.80234 h 60.900755 l 1.201,2.80234 z" style="fill:#68676c;fill-opacity:1;fill-rule:nonzero;stroke:none;stroke-width:25.0209" id="path85684" /><path d="m 62.607463,783.90413 1.201001,-2.77732 h 95.454546 l 2.85238,2.77732 z" style="fill:white;fill-opacity:1;fill-rule:nonzero;stroke:none;stroke-width:25.0209" id="path85688" /><path d="m 30.405628,722.85575 2.777315,-2.80233 h 79.916597 l -1.15096,2.80233 z" style="fill:#98989c;fill-opacity:1;fill-rule:nonzero;stroke:none;stroke-width:25.0209" id="path85692" /><path d="m 33.175436,695.27026 -2.802335,-2.77731 h 94.328609 l -1.201,2.77731 z" style="fill:white;fill-opacity:1;fill-rule:nonzero;stroke:none;stroke-width:25.0209" id="path85696" /><path d="m 162.09537,695.27026 -2.82735,-2.77731 h 30.42535 l -2.80234,2.77731 z" style="fill:white;fill-opacity:1;fill-rule:nonzero;stroke:none;stroke-width:25.0209" id="path85700" /><path d="m 186.88853,739.63223 2.82736,-2.85238 h 6.08007 l 1.15095,2.85238 z" style="fill:white;fill-opacity:1;fill-rule:nonzero;stroke:none;stroke-width:25.0209" id="path85704" /><path d="m 241.27135,695.27026 -1.17598,-2.77731 h 20.19183 l -2.80234,2.77731 z" style="fill:white;fill-opacity:1;fill-rule:nonzero;stroke:none;stroke-width:25.0209" id="path85708" /><path d="m 30.405628,790.52464 2.802336,-1.15096 19.291076,19.3161 -1.125939,2.82736 z" style="fill:#98989c;fill-opacity:1;fill-rule:nonzero;stroke:none;stroke-width:25.0209" id="path85712" /><path d="m 30.405628,757.46709 20.642202,-20.69224 1.150959,2.85238 -19.015846,19.01584 z" style="fill:#edeeef;fill-opacity:1;fill-rule:nonzero;stroke:none;stroke-width:25.0209" id="path85716" /><path d="m 111.92356,736.79487 3.05254,-3.0025 2.77732,1.17598 -4.62886,4.65387 z" style="fill:white;fill-opacity:1;fill-rule:nonzero;stroke:none;stroke-width:25.0209" id="path85720" /><path d="m 57.968598,769.04174 4.628857,-4.62886 1.226022,2.80234 -3.052544,3.0025 z" style="fill:#98989c;fill-opacity:1;fill-rule:nonzero;stroke:none;stroke-width:25.0209" id="path85724" /><path d="m 57.968598,779.24274 2.802335,-1.17598 3.052544,3.07757 -1.226022,2.75229 z" style="fill:#edeeef;fill-opacity:1;fill-rule:nonzero;stroke:none;stroke-width:25.0209" id="path85728" /><path d="m 123.49821,764.40287 19.04086,-19.01584 2.80234,1.12594 -20.6422,20.69224 z" style="fill:#68676c;fill-opacity:1;fill-rule:nonzero;stroke:none;stroke-width:25.0209" id="path85732" /><path d="m 30.405628,757.46709 2.777315,1.17598 v 30.70059 l -2.777315,1.17598 z" style="fill:#edeeef;fill-opacity:1;fill-rule:nonzero;stroke:none;stroke-width:25.0209" id="path85736" /><path d="m 57.968598,769.04174 2.802335,1.17598 v 7.88157 l -2.802335,1.17598 z" style="fill:#c3c5c8;fill-opacity:1;fill-rule:nonzero;stroke:none;stroke-width:25.0209" id="path85740" /><path d="m 114.98611,733.79987 v -7.93161 l 2.77732,-1.15096 v 10.23353 z" style="fill:#edeeef;fill-opacity:1;fill-rule:nonzero;stroke:none;stroke-width:25.0209" id="path85744" /><path d="m 142.5716,745.37452 v -31.0759 l 2.80234,-1.12594 v 33.3528 z" style="fill:#98989c;fill-opacity:1;fill-rule:nonzero;stroke:none;stroke-width:25.0209" id="path85748" /><path d="m 159.28053,781.13432 v -88.62386 l 2.82735,2.7523 v 88.64887 z" style="fill:#edeeef;fill-opacity:1;fill-rule:nonzero;stroke:none;stroke-width:25.0209" id="path85752" /><path d="m 186.88853,695.27026 2.82736,-2.77731 v 44.2869 l -2.82736,2.82736 z" style="fill:#c3c5c8;fill-opacity:1;fill-rule:nonzero;stroke:none;stroke-width:25.0209" id="path85756" /><path d="m 186.88853,808.69729 v -44.31193 l 2.82736,2.80233 v 44.31193 z" style="fill:#98989c;fill-opacity:1;fill-rule:nonzero;stroke:none;stroke-width:25.0209" id="path85760" /><path d="m 257.48486,714.25358 v -18.99082 l 2.80234,-2.7523 v 22.9191 z" style="fill:#c3c5c8;fill-opacity:1;fill-rule:nonzero;stroke:none;stroke-width:25.0209" id="path85764" /><path d="m 195.80596,736.78236 44.31193,-44.28691 1.15096,2.77731 -44.31193,44.36197 z" style="fill:#edeeef;fill-opacity:1;fill-rule:nonzero;stroke:none;stroke-width:25.0209" id="path85768" /><path d="m 219.26802,752.35784 3.90325,0.05 37.10592,38.10675 -3.92827,-0.025 z" style="fill:#edeeef;fill-opacity:1;fill-rule:nonzero;stroke:none;stroke-width:25.0209" id="path85772" /><path d="m 195.01781,767.21522 1.15096,-2.80234 43.13594,43.16097 v 3.92827 z" style="fill:#c3c5c8;fill-opacity:1;fill-rule:nonzero;stroke:none;stroke-width:25.0209" id="path85776" /><path d="m 219.26802,752.35784 38.23186,-38.10676 2.77731,1.15096 -37.10592,37.00584 z" style="fill:#68676c;fill-opacity:1;fill-rule:nonzero;stroke:none;stroke-width:25.0209" id="path85780" /><path d="m 239.31222,807.57135 17.0392,-17.06422 3.95329,0.025 -20.99249,20.96747 z" style="fill:#68676c;fill-opacity:1;fill-rule:nonzero;stroke:none;stroke-width:25.0209" id="path85784" /><path d="m 30.405628,692.50045 2.777315,2.77732 v 24.79566 l -2.777315,2.77732 z" style="fill:#edeeef;fill-opacity:1;fill-rule:nonzero;stroke:none;stroke-width:25.0209" id="path85788" /><path d="m 111.92356,722.85575 1.201,-2.80233 4.62886,4.70392 -2.77732,1.12593 z" style="fill:#c3c5c8;fill-opacity:1;fill-rule:nonzero;stroke:none;stroke-width:25.0209" id="path85792" /><path d="m 123.49821,695.27026 1.22602,-2.77731 20.61718,20.66722 -2.77732,1.12594 z" style="fill:#c3c5c8;fill-opacity:1;fill-rule:nonzero;stroke:none;stroke-width:25.0209" id="path85796" /><path d="m 189.70338,767.21772 -2.82736,-2.80234 h 9.30776 l -1.17598,2.80234 z" style="fill:#c3c5c8;fill-opacity:1;fill-rule:nonzero;stroke:none;stroke-width:25.0209" id="path85800" /><path d="m 333.39562,841.88995 v -42.11009 l 14.91243,21.04253 z" style="fill:#af1505;fill-opacity:1;fill-rule:nonzero;stroke:none;stroke-width:25.0209" id="path85804" /><path d="m 333.40313,841.87994 v 0 l 14.88741,-21.06756 93.45287,0.0751 7.80651,20.99249 z" style="fill:url(#linearGradient85828);stroke:none;stroke-width:25.0209" id="path85830" /><path d="M 348.29054,820.81238 333.40313,799.76985 H 433.8118 l 7.93161,21.09257 -0.20016,0.025 z" style="fill:url(#linearGradient85856);stroke:none;stroke-width:25.0209" id="path85858" /><path d="m 343.5616,778.60221 8.03169,-20.9925 108.56547,-0.17514 v 0.025 l -21.14262,21.14262 z" style="fill:url(#linearGradient85884);stroke:none;stroke-width:25.0209" id="path85886" /><path d="m 351.59329,757.58469 7.70642,-21.09258 H 481.3264 l -21.14262,20.94246 -108.59049,0.17514 z" style="fill:url(#linearGradient85912);stroke:none;stroke-width:25.0209" id="path85914" /><path d="m 480.95109,715.32447 h -126.8307 l -21.11759,-21.16764 131.83486,0.10009 16.28857,21.06755 z" style="fill:url(#linearGradient85940);stroke:none;stroke-width:25.0209" id="path85942" /><path d="m 333.0028,694.15683 -21.19266,-20.94245 h 0.15012 169.16597 l -16.28857,21.04254 z" style="fill:url(#linearGradient85968);stroke:none;stroke-width:25.0209" id="path85970" /><path d="m 441.7284,820.86993 18.41535,-18.3653 -21.14262,-7.85655 -5.17932,5.12927 z" style="fill:#620000;fill-opacity:1;fill-rule:nonzero;stroke:none;stroke-width:25.0209" id="path85974" /><path d="m 439.01614,794.61555 v -16.01334 l 21.14262,-21.16764 0.025,0.025 v 45.01251 h -0.025 v 0.025 z" style="fill:url(#linearGradient86000);stroke:none;stroke-width:25.0209" id="path86002" /><path d="m 441.74341,820.88745 18.44037,-18.39033 21.14262,7.83153 -31.77648,31.55129 z" style="fill:url(#linearGradient86030);stroke:none;stroke-width:25.0209" id="path86032" /><path d="m 460.18378,802.49712 v -45.06255 l 21.14262,-20.94246 v 73.83654 z" style="fill:url(#linearGradient86060);stroke:none;stroke-width:25.0209" id="path86062" /><path d="m 464.83766,694.25692 16.26355,-21.04254 v 42.11009 z" style="fill:#af1505;fill-opacity:1;fill-rule:nonzero;stroke:none;stroke-width:25.0209" id="path86066" /><path d="m 311.78511,747.07593 21.21769,-7.88156 18.59049,18.41534 -8.03169,20.9925 z" style="fill:url(#linearGradient86092);stroke:none;stroke-width:25.0209" id="path86094" /><path d="m 351.58078,757.5997 -18.56547,-18.44036 21.11759,-7.83153 5.1543,5.17932 z" style="fill:#620000;fill-opacity:1;fill-rule:nonzero;stroke:none;stroke-width:25.0209" id="path86098" /><path d="m 333.0028,739.16935 v -44.96247 l 0.025,-0.05 v 0 l 21.09257,21.16764 v 16.01335 l -21.09257,7.83153 z" style="fill:url(#linearGradient86124);stroke:none;stroke-width:25.0209" id="path86126" /><path d="m 311.78511,747.07593 v 0 -73.81151 -0.025 l 0.025,-0.025 21.19266,20.94245 v 45.03754 l -21.19266,7.88156 z" style="fill:url(#linearGradient86152);stroke:none;stroke-width:25.0209" id="path86154" /></g></g></svg>
