<svg width="35" height="25" viewBox="0 0 35 25" fill="none" xmlns="http://www.w3.org/2000/svg">
<rect width="35" height="25" fill="url(#paint_silver)"/>
<g style="mix-blend-mode:multiply">
<path d="M13.5573 5.996H15.1173L18.1533 14H16.4733L15.7773 11.972H12.8013L12.1053 14H10.5213L13.5573 5.996ZM15.3453 10.724L14.2893 7.616L13.2213 10.724H15.3453ZM19.5385 14.912C19.7625 15.064 20.0025 15.172 20.2585 15.236C20.5225 15.308 20.8305 15.344 21.1825 15.344C21.5505 15.344 21.8585 15.232 22.1065 15.008C22.3545 14.784 22.4785 14.472 22.4785 14.072V13.46C22.2865 13.62 22.0745 13.752 21.8425 13.856C21.6185 13.952 21.3185 14 20.9425 14C20.5345 14 20.1705 13.932 19.8505 13.796C19.5385 13.66 19.2705 13.472 19.0465 13.232C18.8225 12.984 18.6505 12.696 18.5305 12.368C18.4185 12.032 18.3625 11.664 18.3625 11.264C18.3625 10.848 18.4345 10.456 18.5785 10.088C18.7305 9.72 18.9425 9.4 19.2145 9.128C19.4945 8.856 19.8305 8.644 20.2225 8.492C20.6145 8.332 21.0545 8.252 21.5425 8.252C22.0305 8.252 22.4785 8.292 22.8865 8.372C23.3025 8.452 23.6385 8.536 23.8945 8.624V14.096C23.8945 14.488 23.8265 14.836 23.6905 15.14C23.5545 15.444 23.3665 15.7 23.1265 15.908C22.8865 16.116 22.6025 16.272 22.2745 16.376C21.9465 16.488 21.5905 16.544 21.2065 16.544C20.9105 16.544 20.6465 16.528 20.4145 16.496C20.1905 16.472 19.9865 16.436 19.8025 16.388C19.6265 16.34 19.4625 16.28 19.3105 16.208C19.1665 16.136 19.0305 16.052 18.9025 15.956L19.5385 14.912ZM22.4785 9.596C22.3665 9.556 22.2505 9.528 22.1305 9.512C22.0105 9.488 21.8225 9.476 21.5665 9.476C21.2785 9.476 21.0265 9.524 20.8105 9.62C20.5945 9.716 20.4105 9.844 20.2585 10.004C20.1065 10.164 19.9905 10.352 19.9105 10.568C19.8385 10.776 19.8025 10.996 19.8025 11.228C19.8025 11.66 19.9105 12.024 20.1265 12.32C20.3425 12.616 20.6905 12.764 21.1705 12.764C21.6025 12.764 21.9265 12.672 22.1425 12.488C22.3665 12.304 22.4785 12.012 22.4785 11.612V9.596Z" fill="#71757A"/>
</g>
<g style="mix-blend-mode:multiply">
<path d="M3.174 5.644L4.806 3.22H5.664V5.632H6.048V6.31H5.664V7H4.86V6.31H3.174V5.644ZM4.86 5.632V4.234L3.948 5.632H4.86ZM6.81753 7C6.89353 6.752 6.98953 6.482 7.10553 6.19C7.22153 5.898 7.34153 5.612 7.46553 5.332C7.58953 5.052 7.71153 4.794 7.83153 4.558C7.95153 4.318 8.05553 4.128 8.14353 3.988H6.47553V3.22H9.02553V3.946C8.90553 4.15 8.78153 4.38 8.65353 4.636C8.52953 4.892 8.40953 5.156 8.29353 5.428C8.18153 5.7 8.07553 5.972 7.97553 6.244C7.87553 6.516 7.79153 6.768 7.72353 7H6.81753Z" fill="#71757A"/>
</g>
<g style="mix-blend-mode:multiply">
<path d="M9.88769 19.684C9.94369 19.7493 10.009 19.8193 10.0837 19.894C10.163 19.964 10.2494 20.0317 10.3427 20.097C10.4407 20.1577 10.548 20.209 10.6647 20.251C10.786 20.293 10.9214 20.314 11.0707 20.314C11.346 20.314 11.549 20.251 11.6797 20.125C11.815 19.999 11.8827 19.8473 11.8827 19.67C11.8827 19.572 11.864 19.4857 11.8267 19.411C11.7894 19.3317 11.7264 19.264 11.6377 19.208C11.549 19.1473 11.4324 19.0937 11.2877 19.047C11.1477 19.0003 10.9727 18.956 10.7627 18.914C10.548 18.872 10.3614 18.8067 10.2027 18.718C10.0487 18.6293 9.92035 18.5243 9.81769 18.403C9.71502 18.2817 9.63802 18.1487 9.58669 18.004C9.53535 17.8547 9.50969 17.703 9.50969 17.549C9.50969 17.3717 9.54235 17.2037 9.60769 17.045C9.67302 16.8817 9.77335 16.7393 9.90869 16.618C10.044 16.492 10.212 16.3917 10.4127 16.317C10.618 16.2423 10.8584 16.205 11.1337 16.205C11.381 16.205 11.5934 16.233 11.7707 16.289C11.948 16.345 12.095 16.4103 12.2117 16.485C12.333 16.5597 12.4264 16.6343 12.4917 16.709C12.557 16.779 12.6037 16.8303 12.6317 16.863L12.0507 17.409C12.0274 17.3903 11.99 17.3577 11.9387 17.311C11.8874 17.2597 11.822 17.2107 11.7427 17.164C11.668 17.1173 11.577 17.0753 11.4697 17.038C11.3624 17.0007 11.241 16.982 11.1057 16.982C10.9844 16.982 10.8794 16.9983 10.7907 17.031C10.702 17.0637 10.6274 17.1057 10.5667 17.157C10.5107 17.2083 10.4687 17.2667 10.4407 17.332C10.4127 17.3927 10.3987 17.451 10.3987 17.507C10.3987 17.591 10.4127 17.6657 10.4407 17.731C10.4734 17.7963 10.5247 17.857 10.5947 17.913C10.6694 17.969 10.7697 18.0203 10.8957 18.067C11.0217 18.109 11.1804 18.1487 11.3717 18.186C11.5537 18.2233 11.7287 18.2793 11.8967 18.354C12.0647 18.4287 12.2117 18.5267 12.3377 18.648C12.4684 18.7647 12.571 18.9093 12.6457 19.082C12.725 19.25 12.7647 19.453 12.7647 19.691C12.7647 19.8963 12.7227 20.0853 12.6387 20.258C12.5547 20.4307 12.438 20.5823 12.2887 20.713C12.1394 20.8437 11.962 20.944 11.7567 21.014C11.5514 21.0887 11.3274 21.126 11.0847 21.126C10.8514 21.126 10.639 21.098 10.4477 21.042C10.261 20.986 10.0907 20.916 9.93669 20.832C9.78735 20.7433 9.65669 20.6477 9.54469 20.545C9.43735 20.4423 9.34635 20.3443 9.27169 20.251L9.88769 19.684ZM13.5171 16.331H14.3991V17.199H13.5171V16.331ZM13.5451 17.717H14.3711V21H13.5451V17.717ZM15.1191 16.331H15.9451V21H15.1191V16.331ZM16.1862 17.717H17.1382L18.0202 20.069L18.9022 17.717H19.8052L18.4192 21H17.5792L16.1862 17.717ZM23.0989 20.524C23.0849 20.538 23.0452 20.5777 22.9799 20.643C22.9192 20.7037 22.8282 20.769 22.7069 20.839C22.5902 20.909 22.4385 20.972 22.2519 21.028C22.0699 21.084 21.8505 21.112 21.5939 21.112C21.3325 21.112 21.0945 21.0677 20.8799 20.979C20.6652 20.8903 20.4809 20.769 20.3269 20.615C20.1775 20.4563 20.0609 20.2673 19.9769 20.048C19.8975 19.8287 19.8579 19.586 19.8579 19.32C19.8579 19.0773 19.8975 18.8533 19.9769 18.648C20.0609 18.438 20.1752 18.256 20.3199 18.102C20.4692 17.948 20.6442 17.8267 20.8449 17.738C21.0502 17.6493 21.2765 17.605 21.5239 17.605C21.8225 17.605 22.0745 17.661 22.2799 17.773C22.4899 17.8803 22.6579 18.0227 22.7839 18.2C22.9099 18.3773 23.0009 18.578 23.0569 18.802C23.1129 19.026 23.1409 19.2547 23.1409 19.488V19.607H20.6909C20.6909 19.7283 20.7165 19.838 20.7679 19.936C20.8239 20.034 20.8939 20.118 20.9779 20.188C21.0665 20.258 21.1645 20.3117 21.2719 20.349C21.3839 20.3863 21.4935 20.405 21.6009 20.405C21.7595 20.405 21.8972 20.391 22.0139 20.363C22.1352 20.3303 22.2379 20.2953 22.3219 20.258C22.4059 20.216 22.4735 20.174 22.5249 20.132C22.5809 20.0853 22.6229 20.048 22.6509 20.02L23.0989 20.524ZM22.2939 19.012C22.2939 18.928 22.2775 18.844 22.2449 18.76C22.2122 18.676 22.1632 18.6013 22.0979 18.536C22.0372 18.466 21.9579 18.41 21.8599 18.368C21.7619 18.3213 21.6499 18.298 21.5239 18.298C21.3885 18.298 21.2672 18.3213 21.1599 18.368C21.0572 18.41 20.9709 18.466 20.9009 18.536C20.8309 18.6013 20.7772 18.676 20.7399 18.76C20.7025 18.844 20.6839 18.928 20.6839 19.012H22.2939ZM23.6785 17.717H24.4695L24.4905 18.13C24.5278 18.0833 24.5745 18.032 24.6305 17.976C24.6911 17.92 24.7611 17.8687 24.8405 17.822C24.9198 17.7753 25.0108 17.7357 25.1135 17.703C25.2208 17.6703 25.3421 17.654 25.4775 17.654C25.5568 17.654 25.6268 17.6587 25.6875 17.668C25.7528 17.6773 25.8181 17.6937 25.8835 17.717L25.7155 18.494C25.6595 18.4707 25.6011 18.4543 25.5405 18.445C25.4845 18.4357 25.4168 18.431 25.3375 18.431C25.2255 18.431 25.1181 18.4497 25.0155 18.487C24.9128 18.5243 24.8241 18.578 24.7495 18.648C24.6748 18.718 24.6141 18.802 24.5675 18.9C24.5255 18.998 24.5045 19.1077 24.5045 19.229V21H23.6785V17.717Z" fill="#71757A"/>
</g>
<defs>
<linearGradient id="paint_silver" x1="17.5" y1="0" x2="17.5" y2="25" gradientUnits="userSpaceOnUse">
<stop stop-color="#F3F2F2"/>
<stop offset="1" stop-color="#C8C8C8"/>
</linearGradient>
</defs>
</svg>
