<svg width="35" height="25" viewBox="0 0 35 25" fill="none" xmlns="http://www.w3.org/2000/svg">
<rect width="35" height="25" fill="url(#paint_gold)"/>
<g style="mix-blend-mode:multiply">
<path d="M13.6159 5.996H15.1759L18.2119 14H16.5319L15.8359 11.972H12.8599L12.1639 14H10.5799L13.6159 5.996ZM15.4039 10.724L14.3479 7.616L13.2799 10.724H15.4039ZM18.5908 8.372H20.0068V11.78C20.0068 12.14 20.1028 12.42 20.2948 12.62C20.4948 12.812 20.7508 12.908 21.0628 12.908C21.2548 12.908 21.4348 12.872 21.6028 12.8C21.7708 12.72 21.9148 12.612 22.0348 12.476C22.1548 12.34 22.2468 12.184 22.3108 12.008C22.3828 11.824 22.4188 11.628 22.4188 11.42V8.372H23.8348V14H22.4788L22.4428 13.364C22.3708 13.444 22.2828 13.528 22.1788 13.616C22.0748 13.704 21.9548 13.788 21.8188 13.868C21.6828 13.94 21.5268 14 21.3508 14.048C21.1748 14.096 20.9748 14.12 20.7508 14.12C20.0468 14.12 19.5108 13.912 19.1428 13.496C18.7748 13.072 18.5908 12.504 18.5908 11.792V8.372Z" fill="#71757A"/>
</g>
<g style="mix-blend-mode:multiply">
<path d="M3.648 7C3.724 6.752 3.82 6.482 3.936 6.19C4.052 5.898 4.172 5.612 4.296 5.332C4.42 5.052 4.542 4.794 4.662 4.558C4.782 4.318 4.886 4.128 4.974 3.988H3.306V3.22H5.856V3.946C5.736 4.15 5.612 4.38 5.484 4.636C5.36 4.892 5.24 5.156 5.124 5.428C5.012 5.7 4.906 5.972 4.806 6.244C4.706 6.516 4.622 6.768 4.554 7H3.648ZM6.84153 6.184C6.86553 6.196 6.89953 6.212 6.94353 6.232C6.99153 6.252 7.04553 6.272 7.10553 6.292C7.16553 6.308 7.22953 6.324 7.29753 6.34C7.36553 6.352 7.43353 6.358 7.50153 6.358C7.76153 6.358 7.95553 6.278 8.08353 6.118C8.21553 5.954 8.29153 5.748 8.31153 5.5C8.23153 5.552 8.12953 5.602 8.00553 5.65C7.88553 5.694 7.73953 5.716 7.56753 5.716C7.37953 5.716 7.21153 5.682 7.06353 5.614C6.91953 5.546 6.79753 5.456 6.69753 5.344C6.59753 5.228 6.51953 5.096 6.46353 4.948C6.41153 4.796 6.38553 4.636 6.38553 4.468C6.38553 4.284 6.41553 4.11 6.47553 3.946C6.53553 3.782 6.62153 3.638 6.73353 3.514C6.84953 3.39 6.98953 3.292 7.15353 3.22C7.32153 3.148 7.51353 3.112 7.72953 3.112C7.93353 3.112 8.12353 3.148 8.29953 3.22C8.47953 3.292 8.63353 3.406 8.76153 3.562C8.88953 3.718 8.98953 3.92 9.06153 4.168C9.13753 4.416 9.17553 4.714 9.17553 5.062C9.17553 5.334 9.14353 5.594 9.07953 5.842C9.01553 6.086 8.91553 6.302 8.77953 6.49C8.64753 6.674 8.47553 6.822 8.26353 6.934C8.05153 7.042 7.79753 7.096 7.50153 7.096C7.28553 7.096 7.08953 7.068 6.91353 7.012C6.73753 6.96 6.60353 6.908 6.51153 6.856L6.84153 6.184ZM8.32953 4.798C8.32953 4.626 8.31353 4.48 8.28153 4.36C8.25353 4.24 8.21153 4.144 8.15553 4.072C8.10353 3.996 8.04153 3.942 7.96953 3.91C7.90153 3.878 7.82553 3.862 7.74153 3.862C7.57353 3.862 7.43953 3.918 7.33953 4.03C7.23953 4.138 7.18953 4.282 7.18953 4.462C7.18953 4.614 7.23553 4.744 7.32753 4.852C7.42353 4.956 7.54953 5.008 7.70553 5.008C7.86553 5.008 7.98953 4.988 8.07753 4.948C8.16953 4.904 8.25353 4.854 8.32953 4.798Z" fill="#71757A"/>
</g>
<g style="mix-blend-mode:multiply">
<path d="M13.2825 18.529H14.9555V20.461C14.7735 20.6337 14.5332 20.7853 14.2345 20.916C13.9359 21.0467 13.5532 21.112 13.0865 21.112C12.7039 21.112 12.3609 21.049 12.0575 20.923C11.7589 20.797 11.5045 20.6267 11.2945 20.412C11.0845 20.1927 10.9235 19.936 10.8115 19.642C10.6995 19.348 10.6435 19.0307 10.6435 18.69C10.6435 18.3493 10.7019 18.0297 10.8185 17.731C10.9352 17.4323 11.0985 17.171 11.3085 16.947C11.5232 16.723 11.7775 16.5457 12.0715 16.415C12.3655 16.2843 12.6899 16.219 13.0445 16.219C13.2732 16.219 13.4832 16.2447 13.6745 16.296C13.8659 16.3427 14.0385 16.408 14.1925 16.492C14.3512 16.576 14.4912 16.6763 14.6125 16.793C14.7339 16.905 14.8412 17.0263 14.9345 17.157L14.3115 17.71C14.1622 17.4953 13.9872 17.3227 13.7865 17.192C13.5905 17.0613 13.3432 16.996 13.0445 16.996C12.8159 16.996 12.6105 17.0427 12.4285 17.136C12.2465 17.2247 12.0902 17.346 11.9595 17.5C11.8335 17.6493 11.7355 17.8267 11.6655 18.032C11.6002 18.2327 11.5675 18.445 11.5675 18.669C11.5675 18.921 11.6072 19.1473 11.6865 19.348C11.7705 19.5487 11.8825 19.7213 12.0225 19.866C12.1672 20.0107 12.3329 20.1227 12.5195 20.202C12.7109 20.2767 12.9115 20.314 13.1215 20.314C13.5509 20.314 13.8822 20.2113 14.1155 20.006V19.278H13.2825V18.529ZM15.5461 19.355C15.5461 19.117 15.5881 18.893 15.6721 18.683C15.7608 18.4683 15.8821 18.2817 16.0361 18.123C16.1901 17.9643 16.3745 17.8383 16.5891 17.745C16.8085 17.6517 17.0488 17.605 17.3101 17.605C17.5715 17.605 17.8095 17.6517 18.0241 17.745C18.2435 17.8383 18.4301 17.9643 18.5841 18.123C18.7381 18.2817 18.8571 18.4683 18.9411 18.683C19.0298 18.893 19.0741 19.117 19.0741 19.355C19.0741 19.593 19.0298 19.8193 18.9411 20.034C18.8571 20.244 18.7381 20.4307 18.5841 20.594C18.4301 20.7527 18.2435 20.8787 18.0241 20.972C17.8095 21.0653 17.5715 21.112 17.3101 21.112C17.0488 21.112 16.8085 21.0653 16.5891 20.972C16.3745 20.8787 16.1901 20.7527 16.0361 20.594C15.8821 20.4307 15.7608 20.244 15.6721 20.034C15.5881 19.8193 15.5461 19.593 15.5461 19.355ZM17.3101 20.398C17.4688 20.398 17.6065 20.3677 17.7231 20.307C17.8398 20.2417 17.9355 20.1577 18.0101 20.055C18.0895 19.9523 18.1478 19.8403 18.1851 19.719C18.2225 19.5977 18.2411 19.4763 18.2411 19.355C18.2411 19.2383 18.2225 19.1193 18.1851 18.998C18.1478 18.872 18.0895 18.76 18.0101 18.662C17.9355 18.5593 17.8398 18.4777 17.7231 18.417C17.6065 18.3517 17.4688 18.319 17.3101 18.319C17.1515 18.319 17.0138 18.3517 16.8971 18.417C16.7805 18.4777 16.6825 18.5593 16.6031 18.662C16.5285 18.76 16.4725 18.872 16.4351 18.998C16.3978 19.1193 16.3791 19.2383 16.3791 19.355C16.3791 19.4763 16.3978 19.5977 16.4351 19.719C16.4725 19.8403 16.5285 19.9523 16.6031 20.055C16.6825 20.1577 16.7805 20.2417 16.8971 20.307C17.0138 20.3677 17.1515 20.398 17.3101 20.398ZM19.6333 16.331H20.4593V21H19.6333V16.331ZM23.442 20.678C23.4 20.7247 23.3486 20.7737 23.288 20.825C23.2273 20.8763 23.155 20.923 23.071 20.965C22.9916 21.007 22.9006 21.042 22.798 21.07C22.7 21.098 22.588 21.112 22.462 21.112C22.2846 21.112 22.1096 21.0747 21.937 21C21.7643 20.9253 21.6103 20.8157 21.475 20.671C21.3396 20.5263 21.23 20.349 21.146 20.139C21.062 19.929 21.02 19.6887 21.02 19.418C21.02 19.1613 21.0573 18.9373 21.132 18.746C21.2066 18.55 21.3 18.3843 21.412 18.249C21.5053 18.137 21.608 18.0437 21.72 17.969C21.832 17.8943 21.944 17.8337 22.056 17.787C22.1726 17.7357 22.2846 17.7007 22.392 17.682C22.4993 17.6587 22.5926 17.647 22.672 17.647C22.7793 17.647 22.868 17.6517 22.938 17.661C23.008 17.6657 23.071 17.675 23.127 17.689C23.183 17.6983 23.2343 17.7123 23.281 17.731C23.3276 17.7497 23.3813 17.7707 23.442 17.794V16.331H24.261V21H23.463L23.442 20.678ZM23.442 18.536C23.3626 18.4707 23.2693 18.4263 23.162 18.403C23.0593 18.375 22.9263 18.361 22.763 18.361C22.5996 18.361 22.4643 18.3937 22.357 18.459C22.2496 18.5197 22.1563 18.6013 22.077 18.704C22.007 18.7973 21.951 18.907 21.909 19.033C21.8716 19.1543 21.853 19.2827 21.853 19.418C21.853 19.698 21.923 19.9313 22.063 20.118C22.203 20.3047 22.406 20.398 22.672 20.398C22.812 20.398 22.931 20.3723 23.029 20.321C23.127 20.265 23.2063 20.195 23.267 20.111C23.3276 20.027 23.372 19.936 23.4 19.838C23.428 19.7353 23.442 19.6373 23.442 19.544V18.536Z" fill="#71757A"/>
</g>
<defs>
<linearGradient id="paint_gold" x1="17.5" y1="0" x2="17.5" y2="25" gradientUnits="userSpaceOnUse">
<stop stop-color="#F7FDCD"/>
<stop offset="1" stop-color="#F7D040"/>
</linearGradient>
</defs>
</svg>
