<svg width="35" height="25" viewBox="0 0 35 25" fill="none" xmlns="http://www.w3.org/2000/svg">
<rect width="35" height="25" fill="url(#paint0_linear_4221:10462)"/>
<rect opacity="0.8" width="35" height="25" fill="#C9DA63"/>
<rect opacity="0.8" width="35" height="25" fill="#D7D7D7"/>
<g style="mix-blend-mode:multiply">
<path d="M8.34209 12.86L5.78609 8.996H7.61009L9.27809 11.612L10.8861 8.996H12.5301L10.0701 12.824L12.8181 17H10.9941L9.14609 14.084L7.32209 17H5.67809L8.34209 12.86ZM20.3801 15.536C20.2601 15.72 20.0921 15.908 19.8761 16.1C19.6681 16.292 19.4201 16.472 19.1321 16.64C18.8441 16.8 18.5281 16.932 18.1841 17.036C17.8401 17.14 17.4761 17.192 17.0921 17.192C16.4921 17.192 15.9441 17.088 15.4481 16.88C14.9521 16.672 14.5241 16.384 14.1641 16.016C13.8041 15.64 13.5241 15.2 13.3241 14.696C13.1241 14.192 13.0241 13.64 13.0241 13.04C13.0241 12.456 13.1241 11.908 13.3241 11.396C13.5241 10.884 13.8041 10.436 14.1641 10.052C14.5321 9.668 14.9681 9.364 15.4721 9.14C15.9761 8.916 16.5321 8.804 17.1401 8.804C17.5321 8.804 17.8921 8.848 18.2201 8.936C18.5481 9.016 18.8441 9.128 19.1081 9.272C19.3801 9.416 19.6201 9.588 19.8281 9.788C20.0361 9.98 20.2201 10.188 20.3801 10.412L19.3121 11.36C19.0561 10.992 18.7561 10.696 18.4121 10.472C18.0761 10.248 17.6521 10.136 17.1401 10.136C16.7481 10.136 16.3961 10.216 16.0841 10.376C15.7721 10.528 15.5041 10.736 15.2801 11C15.0641 11.256 14.8961 11.56 14.7761 11.912C14.6641 12.256 14.6081 12.62 14.6081 13.004C14.6081 13.388 14.6641 13.748 14.7761 14.084C14.8961 14.42 15.0641 14.712 15.2801 14.96C15.4961 15.208 15.7521 15.404 16.0481 15.548C16.3521 15.692 16.6921 15.764 17.0681 15.764C17.4121 15.764 17.7041 15.724 17.9441 15.644C18.1921 15.564 18.4001 15.464 18.5681 15.344C18.7441 15.224 18.8881 15.1 19.0001 14.972C19.1201 14.836 19.2281 14.72 19.3241 14.624L20.3801 15.536ZM21.6923 8.996H24.6803C25.3043 8.996 25.8763 9.076 26.3963 9.236C26.9163 9.396 27.3643 9.64 27.7403 9.968C28.1163 10.296 28.4083 10.716 28.6163 11.228C28.8243 11.74 28.9283 12.344 28.9283 13.04C28.9283 13.704 28.8203 14.284 28.6043 14.78C28.3963 15.268 28.1003 15.68 27.7163 16.016C27.3403 16.344 26.8923 16.592 26.3723 16.76C25.8523 16.92 25.2843 17 24.6683 17H21.6923V8.996ZM24.5363 15.656C25.4483 15.656 26.1443 15.436 26.6243 14.996C27.1043 14.556 27.3443 13.912 27.3443 13.064C27.3443 12.224 27.1203 11.56 26.6723 11.072C26.2323 10.584 25.5203 10.34 24.5363 10.34H23.2043V15.656H24.5363Z" fill="black"/>
</g>
<defs>
<linearGradient id="paint0_linear_4221:10462" x1="17.5" y1="0" x2="17.5" y2="25" gradientUnits="userSpaceOnUse">
<stop stop-color="#CCFBD6"/>
<stop offset="1" stop-color="#546A71"/>
</linearGradient>
</defs>
</svg>
