<svg width="35" height="25" viewBox="0 0 35 25" fill="none" xmlns="http://www.w3.org/2000/svg">
<rect width="35" height="25" fill="url(#paint0_linear_4221:10467)"/>
<rect opacity="0.8" width="35" height="25" fill="#C47F7E"/>
<rect opacity="0.8" width="35" height="25" fill="#D7D7D7"/>
<g style="mix-blend-mode:multiply">
<path d="M8.72256 12.86L6.16656 8.996H7.99056L9.65856 11.612L11.2666 8.996H12.9106L10.4506 12.824L13.1986 17H11.3746L9.52656 14.084L7.70256 17H6.05856L8.72256 12.86ZM17.5686 17.216C16.9846 17.216 16.4406 17.108 15.9366 16.892C15.4326 16.668 14.9926 16.364 14.6166 15.98C14.2406 15.596 13.9446 15.148 13.7286 14.636C13.5126 14.124 13.4046 13.576 13.4046 12.992C13.4046 12.408 13.5126 11.86 13.7286 11.348C13.9446 10.836 14.2366 10.392 14.6046 10.016C14.9806 9.632 15.4206 9.332 15.9246 9.116C16.4366 8.892 16.9846 8.78 17.5686 8.78C18.1526 8.78 18.6966 8.892 19.2006 9.116C19.7046 9.332 20.1446 9.632 20.5206 10.016C20.8966 10.392 21.1926 10.836 21.4086 11.348C21.6246 11.86 21.7326 12.408 21.7326 12.992C21.7326 13.576 21.6246 14.124 21.4086 14.636C21.1926 15.148 20.8966 15.596 20.5206 15.98C20.1446 16.364 19.7046 16.668 19.2006 16.892C18.6966 17.108 18.1526 17.216 17.5686 17.216ZM17.5686 15.788C17.9606 15.788 18.3166 15.712 18.6366 15.56C18.9566 15.408 19.2286 15.204 19.4526 14.948C19.6766 14.684 19.8486 14.38 19.9686 14.036C20.0886 13.692 20.1486 13.332 20.1486 12.956C20.1486 12.572 20.0886 12.212 19.9686 11.876C19.8486 11.532 19.6766 11.232 19.4526 10.976C19.2286 10.72 18.9566 10.52 18.6366 10.376C18.3166 10.224 17.9606 10.148 17.5686 10.148C17.1686 10.148 16.8086 10.224 16.4886 10.376C16.1766 10.52 15.9086 10.72 15.6846 10.976C15.4606 11.232 15.2886 11.532 15.1686 11.876C15.0486 12.212 14.9886 12.572 14.9886 12.956C14.9886 13.332 15.0486 13.692 15.1686 14.036C15.2886 14.38 15.4606 14.684 15.6846 14.948C15.9086 15.204 16.1766 15.408 16.4886 15.56C16.8086 15.712 17.1686 15.788 17.5686 15.788ZM23.3033 8.996H28.4753V10.328H24.8153V12.404H27.5513V13.748H24.8153V17H23.3033V8.996Z" fill="black"/>
</g>
<defs>
<linearGradient id="paint0_linear_4221:10467" x1="17.5" y1="0" x2="17.5" y2="25" gradientUnits="userSpaceOnUse">
<stop stop-color="#DFF0FF"/>
<stop offset="1" stop-color="#8692B3"/>
</linearGradient>
</defs>
</svg>
