<svg width="35" height="25" viewBox="0 0 35 25" fill="none" xmlns="http://www.w3.org/2000/svg">
<rect width="35" height="25" fill="url(#paint_palladium)"/>
<g style="mix-blend-mode:multiply">
<path d="M11.8861 5.996H14.4541C15.0141 5.996 15.4701 6.084 15.8221 6.26C16.1821 6.428 16.4661 6.64 16.6741 6.896C16.8821 7.144 17.0261 7.412 17.1061 7.7C17.1861 7.988 17.2261 8.252 17.2261 8.492C17.2261 8.94 17.1461 9.324 16.9861 9.644C16.8261 9.964 16.6181 10.228 16.3621 10.436C16.1061 10.636 15.8181 10.784 15.4981 10.88C15.1781 10.976 14.8621 11.024 14.5501 11.024H13.3381V14H11.8861V5.996ZM14.4301 9.752C14.8141 9.752 15.1181 9.64 15.3421 9.416C15.5741 9.192 15.6901 8.9 15.6901 8.54C15.6901 8.164 15.5701 7.86 15.3301 7.628C15.0901 7.388 14.7901 7.268 14.4301 7.268H13.3381V9.752H14.4301ZM21.8582 13.448C21.7862 13.528 21.6982 13.612 21.5942 13.7C21.4902 13.788 21.3662 13.868 21.2222 13.94C21.0862 14.012 20.9302 14.072 20.7542 14.12C20.5862 14.168 20.3942 14.192 20.1782 14.192C19.8742 14.192 19.5742 14.128 19.2782 14C18.9822 13.872 18.7182 13.684 18.4862 13.436C18.2542 13.188 18.0662 12.884 17.9222 12.524C17.7782 12.164 17.7062 11.752 17.7062 11.288C17.7062 10.848 17.7702 10.464 17.8982 10.136C18.0262 9.8 18.1862 9.516 18.3782 9.284C18.5382 9.092 18.7142 8.932 18.9062 8.804C19.0982 8.676 19.2902 8.572 19.4822 8.492C19.6822 8.404 19.8742 8.344 20.0582 8.312C20.2422 8.272 20.4022 8.252 20.5382 8.252C20.7222 8.252 20.8742 8.26 20.9942 8.276C21.1142 8.284 21.2222 8.3 21.3182 8.324C21.4142 8.34 21.5022 8.364 21.5822 8.396C21.6622 8.428 21.7542 8.464 21.8582 8.504V5.996H23.2622V14H21.8942L21.8582 13.448ZM21.8582 9.776C21.7222 9.664 21.5622 9.588 21.3782 9.548C21.2022 9.5 20.9742 9.476 20.6942 9.476C20.4142 9.476 20.1822 9.532 19.9982 9.644C19.8142 9.748 19.6542 9.888 19.5182 10.064C19.3982 10.224 19.3022 10.412 19.2302 10.628C19.1662 10.836 19.1342 11.056 19.1342 11.288C19.1342 11.768 19.2542 12.168 19.4942 12.488C19.7342 12.808 20.0822 12.968 20.5382 12.968C20.7782 12.968 20.9822 12.924 21.1502 12.836C21.3182 12.74 21.4542 12.62 21.5582 12.476C21.6622 12.332 21.7382 12.176 21.7862 12.008C21.8342 11.832 21.8582 11.664 21.8582 11.504V9.776Z" fill="#71757A"/>
</g>
<g style="mix-blend-mode:multiply">
<path d="M3.174 5.644L4.806 3.22H5.664V5.632H6.048V6.31H5.664V7H4.86V6.31H3.174V5.644ZM4.86 5.632V4.234L3.948 5.632H4.86ZM8.76753 4.018C8.71953 3.994 8.63953 3.962 8.52753 3.922C8.41953 3.878 8.29753 3.856 8.16153 3.856C8.05353 3.856 7.94953 3.878 7.84953 3.922C7.75353 3.962 7.66753 4.022 7.59153 4.102C7.51553 4.178 7.45153 4.27 7.39953 4.378C7.34753 4.486 7.31553 4.606 7.30353 4.738C7.39153 4.682 7.49553 4.632 7.61553 4.588C7.73553 4.54 7.87153 4.516 8.02353 4.516C8.20753 4.516 8.37353 4.546 8.52153 4.606C8.67353 4.666 8.80153 4.75 8.90553 4.858C9.00953 4.966 9.08953 5.096 9.14553 5.248C9.20153 5.4 9.22953 5.568 9.22953 5.752C9.22953 5.936 9.19953 6.11 9.13953 6.274C9.07953 6.438 8.99153 6.582 8.87553 6.706C8.75953 6.826 8.61753 6.922 8.44953 6.994C8.28553 7.066 8.09553 7.102 7.87953 7.102C7.67553 7.102 7.48353 7.068 7.30353 7C7.12753 6.928 6.97353 6.816 6.84153 6.664C6.71353 6.508 6.61153 6.312 6.53553 6.076C6.46353 5.836 6.42753 5.548 6.42753 5.212C6.42753 4.916 6.46353 4.64 6.53553 4.384C6.61153 4.128 6.72353 3.906 6.87153 3.718C7.01953 3.53 7.19953 3.382 7.41153 3.274C7.62753 3.166 7.87753 3.112 8.16153 3.112C8.37753 3.112 8.56153 3.14 8.71353 3.196C8.86953 3.252 8.99553 3.304 9.09153 3.352L8.76753 4.018ZM7.28553 5.416C7.28553 5.596 7.30153 5.748 7.33353 5.872C7.36953 5.992 7.41353 6.088 7.46553 6.16C7.52153 6.232 7.58553 6.284 7.65753 6.316C7.72953 6.344 7.80353 6.358 7.87953 6.358C8.04753 6.358 8.17953 6.302 8.27553 6.19C8.37553 6.074 8.42553 5.926 8.42553 5.746C8.42553 5.578 8.37553 5.446 8.27553 5.35C8.17553 5.254 8.04953 5.206 7.89753 5.206C7.75353 5.206 7.63153 5.228 7.53153 5.272C7.43553 5.312 7.35353 5.36 7.28553 5.416Z" fill="#71757A"/>
</g>
<g style="mix-blend-mode:multiply">
<path d="M3.66539 16.331H5.16339C5.49006 16.331 5.75606 16.3823 5.96139 16.485C6.17139 16.583 6.33706 16.7067 6.45839 16.856C6.57972 17.0007 6.66372 17.157 6.71039 17.325C6.75706 17.493 6.78039 17.647 6.78039 17.787C6.78039 18.0483 6.73372 18.2723 6.64039 18.459C6.54706 18.6457 6.42572 18.7997 6.27639 18.921C6.12706 19.0377 5.95906 19.124 5.77239 19.18C5.58572 19.236 5.40139 19.264 5.21939 19.264H4.51239V21H3.66539V16.331ZM5.14939 18.522C5.37339 18.522 5.55072 18.4567 5.68139 18.326C5.81672 18.1953 5.88439 18.025 5.88439 17.815C5.88439 17.5957 5.81439 17.4183 5.67439 17.283C5.53439 17.143 5.35939 17.073 5.14939 17.073H4.51239V18.522H5.14939ZM9.1118 20.692C9.02313 20.7993 8.8878 20.895 8.7058 20.979C8.5238 21.063 8.3208 21.105 8.0968 21.105C7.96146 21.105 7.82613 21.084 7.6908 21.042C7.56013 21 7.4388 20.937 7.3268 20.853C7.21946 20.7643 7.1308 20.6523 7.0608 20.517C6.99546 20.3817 6.9628 20.223 6.9628 20.041C6.9628 19.8543 6.9978 19.6887 7.0678 19.544C7.1378 19.3947 7.2358 19.271 7.3618 19.173C7.4878 19.0703 7.63946 18.9933 7.8168 18.942C7.99413 18.8907 8.19013 18.865 8.4048 18.865C8.47013 18.865 8.54246 18.8673 8.6218 18.872C8.70113 18.872 8.77813 18.8743 8.8528 18.879C8.9368 18.8837 9.02313 18.8883 9.1118 18.893V18.816C9.1118 18.6527 9.04646 18.5243 8.9158 18.431C8.78513 18.3377 8.6148 18.291 8.4048 18.291C8.17146 18.291 7.9848 18.3213 7.8448 18.382C7.7048 18.4427 7.58113 18.508 7.4738 18.578L7.0958 18.018C7.16113 17.9713 7.2358 17.9247 7.3198 17.878C7.4038 17.8267 7.5018 17.7823 7.6138 17.745C7.7258 17.703 7.85413 17.6703 7.9988 17.647C8.14813 17.619 8.3208 17.605 8.5168 17.605C8.7268 17.605 8.9158 17.6353 9.0838 17.696C9.25646 17.752 9.40346 17.8337 9.5248 17.941C9.64613 18.0437 9.73946 18.1697 9.8048 18.319C9.87013 18.4637 9.9028 18.6223 9.9028 18.795V21H9.1328L9.1118 20.692ZM9.1118 19.516C9.0278 19.5113 8.94613 19.5067 8.8668 19.502C8.80146 19.4973 8.73146 19.495 8.6568 19.495C8.5868 19.4903 8.52613 19.488 8.4748 19.488C8.2088 19.488 8.02213 19.5417 7.9148 19.649C7.80746 19.7517 7.7538 19.8707 7.7538 20.006C7.7538 20.146 7.8028 20.2557 7.9008 20.335C8.00346 20.4143 8.1528 20.454 8.3488 20.454C8.4468 20.454 8.54013 20.4377 8.6288 20.405C8.72213 20.3723 8.8038 20.328 8.8738 20.272C8.9438 20.216 8.9998 20.1507 9.0418 20.076C9.08846 20.0013 9.1118 19.922 9.1118 19.838V19.516ZM10.6001 16.331H11.4261V21H10.6001V16.331ZM12.1408 16.331H12.9668V21H12.1408V16.331ZM15.6204 20.692C15.5317 20.7993 15.3964 20.895 15.2144 20.979C15.0324 21.063 14.8294 21.105 14.6054 21.105C14.4701 21.105 14.3347 21.084 14.1994 21.042C14.0687 21 13.9474 20.937 13.8354 20.853C13.7281 20.7643 13.6394 20.6523 13.5694 20.517C13.5041 20.3817 13.4714 20.223 13.4714 20.041C13.4714 19.8543 13.5064 19.6887 13.5764 19.544C13.6464 19.3947 13.7444 19.271 13.8704 19.173C13.9964 19.0703 14.1481 18.9933 14.3254 18.942C14.5027 18.8907 14.6987 18.865 14.9134 18.865C14.9787 18.865 15.0511 18.8673 15.1304 18.872C15.2097 18.872 15.2867 18.8743 15.3614 18.879C15.4454 18.8837 15.5317 18.8883 15.6204 18.893V18.816C15.6204 18.6527 15.5551 18.5243 15.4244 18.431C15.2937 18.3377 15.1234 18.291 14.9134 18.291C14.6801 18.291 14.4934 18.3213 14.3534 18.382C14.2134 18.4427 14.0897 18.508 13.9824 18.578L13.6044 18.018C13.6697 17.9713 13.7444 17.9247 13.8284 17.878C13.9124 17.8267 14.0104 17.7823 14.1224 17.745C14.2344 17.703 14.3627 17.6703 14.5074 17.647C14.6567 17.619 14.8294 17.605 15.0254 17.605C15.2354 17.605 15.4244 17.6353 15.5924 17.696C15.7651 17.752 15.9121 17.8337 16.0334 17.941C16.1547 18.0437 16.2481 18.1697 16.3134 18.319C16.3787 18.4637 16.4114 18.6223 16.4114 18.795V21H15.6414L15.6204 20.692ZM15.6204 19.516C15.5364 19.5113 15.4547 19.5067 15.3754 19.502C15.3101 19.4973 15.2401 19.495 15.1654 19.495C15.0954 19.4903 15.0347 19.488 14.9834 19.488C14.7174 19.488 14.5307 19.5417 14.4234 19.649C14.3161 19.7517 14.2624 19.8707 14.2624 20.006C14.2624 20.146 14.3114 20.2557 14.4094 20.335C14.5121 20.4143 14.6614 20.454 14.8574 20.454C14.9554 20.454 15.0487 20.4377 15.1374 20.405C15.2307 20.3723 15.3124 20.328 15.3824 20.272C15.4524 20.216 15.5084 20.1507 15.5504 20.076C15.5971 20.0013 15.6204 19.922 15.6204 19.838V19.516ZM19.3767 20.678C19.3347 20.7247 19.2834 20.7737 19.2227 20.825C19.1621 20.8763 19.0897 20.923 19.0057 20.965C18.9264 21.007 18.8354 21.042 18.7327 21.07C18.6347 21.098 18.5227 21.112 18.3967 21.112C18.2194 21.112 18.0444 21.0747 17.8717 21C17.6991 20.9253 17.5451 20.8157 17.4097 20.671C17.2744 20.5263 17.1647 20.349 17.0807 20.139C16.9967 19.929 16.9547 19.6887 16.9547 19.418C16.9547 19.1613 16.9921 18.9373 17.0667 18.746C17.1414 18.55 17.2347 18.3843 17.3467 18.249C17.4401 18.137 17.5427 18.0437 17.6547 17.969C17.7667 17.8943 17.8787 17.8337 17.9907 17.787C18.1074 17.7357 18.2194 17.7007 18.3267 17.682C18.4341 17.6587 18.5274 17.647 18.6067 17.647C18.7141 17.647 18.8027 17.6517 18.8727 17.661C18.9427 17.6657 19.0057 17.675 19.0617 17.689C19.1177 17.6983 19.1691 17.7123 19.2157 17.731C19.2624 17.7497 19.3161 17.7707 19.3767 17.794V16.331H20.1957V21H19.3977L19.3767 20.678ZM19.3767 18.536C19.2974 18.4707 19.2041 18.4263 19.0967 18.403C18.9941 18.375 18.8611 18.361 18.6977 18.361C18.5344 18.361 18.3991 18.3937 18.2917 18.459C18.1844 18.5197 18.0911 18.6013 18.0117 18.704C17.9417 18.7973 17.8857 18.907 17.8437 19.033C17.8064 19.1543 17.7877 19.2827 17.7877 19.418C17.7877 19.698 17.8577 19.9313 17.9977 20.118C18.1377 20.3047 18.3407 20.398 18.6067 20.398C18.7467 20.398 18.8657 20.3723 18.9637 20.321C19.0617 20.265 19.1411 20.195 19.2017 20.111C19.2624 20.027 19.3067 19.936 19.3347 19.838C19.3627 19.7353 19.3767 19.6373 19.3767 19.544V18.536ZM20.9122 16.331H21.7942V17.199H20.9122V16.331ZM20.9402 17.717H21.7662V21H20.9402V17.717ZM22.5002 17.717H23.3262V19.705C23.3262 19.915 23.3822 20.0783 23.4942 20.195C23.6109 20.307 23.7602 20.363 23.9422 20.363C24.0542 20.363 24.1592 20.342 24.2572 20.3C24.3552 20.2533 24.4392 20.1903 24.5092 20.111C24.5792 20.0317 24.6329 19.9407 24.6702 19.838C24.7122 19.7307 24.7332 19.6163 24.7332 19.495V17.717H25.5592V21H24.7682L24.7472 20.629C24.7052 20.6757 24.6539 20.7247 24.5932 20.776C24.5325 20.8273 24.4625 20.8763 24.3832 20.923C24.3039 20.965 24.2129 21 24.1102 21.028C24.0075 21.056 23.8909 21.07 23.7602 21.07C23.3495 21.07 23.0369 20.9487 22.8222 20.706C22.6075 20.4587 22.5002 20.1273 22.5002 19.712V17.717ZM26.2697 17.717H27.0607L27.0817 18.088C27.1237 18.0413 27.1703 17.9923 27.2217 17.941C27.2777 17.885 27.343 17.836 27.4177 17.794C27.497 17.752 27.5857 17.717 27.6837 17.689C27.7863 17.661 27.903 17.647 28.0337 17.647C28.4677 17.647 28.7967 17.8057 29.0207 18.123C29.1887 17.9503 29.359 17.829 29.5317 17.759C29.709 17.6843 29.9143 17.647 30.1477 17.647C30.563 17.647 30.8803 17.7707 31.0997 18.018C31.3237 18.2607 31.4357 18.5897 31.4357 19.005V21H30.6097V19.012C30.6097 18.802 30.556 18.641 30.4487 18.529C30.346 18.4123 30.2037 18.354 30.0217 18.354C29.9097 18.354 29.807 18.3773 29.7137 18.424C29.6203 18.466 29.5387 18.5267 29.4687 18.606C29.4033 18.6853 29.352 18.7787 29.3147 18.886C29.282 18.9887 29.2657 19.1007 29.2657 19.222V21H28.4397V19.012C28.4397 18.802 28.386 18.641 28.2787 18.529C28.176 18.4123 28.0337 18.354 27.8517 18.354C27.7397 18.354 27.637 18.3773 27.5437 18.424C27.4503 18.466 27.3687 18.5267 27.2987 18.606C27.2333 18.6853 27.182 18.7787 27.1447 18.886C27.112 18.9887 27.0957 19.1007 27.0957 19.222V21H26.2697V17.717Z" fill="#71757A"/>
</g>
<defs>
<linearGradient id="paint_palladium" x1="17.5" y1="0" x2="17.5" y2="25" gradientUnits="userSpaceOnUse">
<stop stop-color="#F1EEDD"/>
<stop offset="1" stop-color="#C1BCA4"/>
</linearGradient>
</defs>
</svg>
