<svg width="35" height="25" viewBox="0 0 35 25" fill="none" xmlns="http://www.w3.org/2000/svg">
<rect width="35" height="25" fill="url(#paint_platinum)"/>
<g style="mix-blend-mode:multiply">
<path d="M12.6302 5.996H15.1982C15.7582 5.996 16.2142 6.084 16.5662 6.26C16.9262 6.428 17.2102 6.64 17.4182 6.896C17.6262 7.144 17.7702 7.412 17.8502 7.7C17.9302 7.988 17.9702 8.252 17.9702 8.492C17.9702 8.94 17.8902 9.324 17.7302 9.644C17.5702 9.964 17.3622 10.228 17.1062 10.436C16.8502 10.636 16.5622 10.784 16.2422 10.88C15.9222 10.976 15.6062 11.024 15.2942 11.024H14.0822V14H12.6302V5.996ZM15.1742 9.752C15.5582 9.752 15.8622 9.64 16.0862 9.416C16.3182 9.192 16.4342 8.9 16.4342 8.54C16.4342 8.164 16.3142 7.86 16.0742 7.628C15.8342 7.388 15.5342 7.268 15.1742 7.268H14.0822V9.752H15.1742ZM19.5576 9.524H18.5976V8.372H19.5576V6.548H20.9736V8.372H22.4856V9.524H20.9736V11.984C20.9736 12.304 21.0256 12.552 21.1296 12.728C21.2416 12.896 21.4176 12.98 21.6576 12.98C21.8816 12.98 22.0576 12.948 22.1856 12.884C22.3216 12.82 22.4496 12.744 22.5696 12.656L23.1696 13.532C22.8896 13.764 22.6136 13.928 22.3416 14.024C22.0696 14.128 21.7656 14.18 21.4296 14.18C21.0856 14.18 20.7936 14.128 20.5536 14.024C20.3136 13.928 20.1176 13.788 19.9656 13.604C19.8216 13.42 19.7176 13.2 19.6536 12.944C19.5896 12.68 19.5576 12.392 19.5576 12.08V9.524Z" fill="#71757A"/>
</g>
<g style="mix-blend-mode:multiply">
<path d="M3.648 7C3.724 6.752 3.82 6.482 3.936 6.19C4.052 5.898 4.172 5.612 4.296 5.332C4.42 5.052 4.542 4.794 4.662 4.558C4.782 4.318 4.886 4.128 4.974 3.988H3.306V3.22H5.856V3.946C5.736 4.15 5.612 4.38 5.484 4.636C5.36 4.892 5.24 5.156 5.124 5.428C5.012 5.7 4.906 5.972 4.806 6.244C4.706 6.516 4.622 6.768 4.554 7H3.648ZM7.80153 4.672C7.94153 4.628 8.05753 4.56 8.14953 4.468C8.24153 4.376 8.28753 4.272 8.28753 4.156C8.28753 4.028 8.24153 3.924 8.14953 3.844C8.06153 3.764 7.94553 3.724 7.80153 3.724C7.66153 3.724 7.54353 3.766 7.44753 3.85C7.35553 3.93 7.30953 4.036 7.30953 4.168C7.30953 4.276 7.35553 4.376 7.44753 4.468C7.54353 4.56 7.66153 4.628 7.80153 4.672ZM7.79553 5.29C7.71553 5.31 7.63953 5.338 7.56753 5.374C7.49553 5.406 7.42953 5.448 7.36953 5.5C7.31353 5.552 7.26753 5.612 7.23153 5.68C7.19953 5.744 7.18353 5.816 7.18353 5.896C7.18353 5.988 7.20153 6.066 7.23753 6.13C7.27353 6.194 7.31953 6.248 7.37553 6.292C7.43553 6.332 7.50153 6.362 7.57353 6.382C7.64953 6.402 7.72553 6.412 7.80153 6.412C7.87353 6.412 7.94553 6.402 8.01753 6.382C8.09353 6.362 8.16153 6.332 8.22153 6.292C8.28153 6.248 8.32953 6.194 8.36553 6.13C8.40153 6.066 8.41953 5.988 8.41953 5.896C8.41953 5.816 8.40153 5.744 8.36553 5.68C8.32953 5.612 8.28153 5.552 8.22153 5.5C8.16153 5.448 8.09353 5.406 8.01753 5.374C7.94553 5.338 7.87153 5.31 7.79553 5.29ZM6.97953 4.918C6.85953 4.846 6.75353 4.742 6.66153 4.606C6.56953 4.466 6.52353 4.306 6.52353 4.126C6.52353 3.982 6.55353 3.848 6.61353 3.724C6.67353 3.6 6.75953 3.494 6.87153 3.406C6.98353 3.314 7.11753 3.242 7.27353 3.19C7.43353 3.138 7.60953 3.112 7.80153 3.112C8.00153 3.112 8.18153 3.138 8.34153 3.19C8.50153 3.238 8.63553 3.308 8.74353 3.4C8.85553 3.488 8.93953 3.594 8.99553 3.718C9.05553 3.838 9.08553 3.97 9.08553 4.114C9.08553 4.298 9.03753 4.458 8.94153 4.594C8.84553 4.73 8.73753 4.834 8.61753 4.906C8.82153 4.998 8.98353 5.128 9.10353 5.296C9.22353 5.464 9.28353 5.67 9.28353 5.914C9.28353 6.046 9.25353 6.182 9.19353 6.322C9.13753 6.462 9.04953 6.59 8.92953 6.706C8.80953 6.818 8.65553 6.912 8.46753 6.988C8.27953 7.06 8.05753 7.096 7.80153 7.096C7.54153 7.096 7.31753 7.062 7.12953 6.994C6.94553 6.922 6.79353 6.832 6.67353 6.724C6.55353 6.612 6.46353 6.486 6.40353 6.346C6.34753 6.206 6.31953 6.066 6.31953 5.926C6.31953 5.682 6.37953 5.476 6.49953 5.308C6.62353 5.14 6.78353 5.01 6.97953 4.918Z" fill="#71757A"/>
</g>
<g style="mix-blend-mode:multiply">
<path d="M4.70572 16.331H6.20372C6.53039 16.331 6.79639 16.3823 7.00172 16.485C7.21172 16.583 7.37739 16.7067 7.49872 16.856C7.62006 17.0007 7.70406 17.157 7.75072 17.325C7.79739 17.493 7.82072 17.647 7.82072 17.787C7.82072 18.0483 7.77406 18.2723 7.68072 18.459C7.58739 18.6457 7.46606 18.7997 7.31672 18.921C7.16739 19.0377 6.99939 19.124 6.81272 19.18C6.62606 19.236 6.44172 19.264 6.25972 19.264H5.55272V21H4.70572V16.331ZM6.18972 18.522C6.41372 18.522 6.59106 18.4567 6.72172 18.326C6.85706 18.1953 6.92472 18.025 6.92472 17.815C6.92472 17.5957 6.85472 17.4183 6.71472 17.283C6.57472 17.143 6.39972 17.073 6.18972 17.073H5.55272V18.522H6.18972ZM8.42504 16.331H9.25104V21H8.42504V16.331ZM11.9047 20.692C11.816 20.7993 11.6807 20.895 11.4987 20.979C11.3167 21.063 11.1137 21.105 10.8897 21.105C10.7543 21.105 10.619 21.084 10.4837 21.042C10.353 21 10.2317 20.937 10.1197 20.853C10.0123 20.7643 9.92367 20.6523 9.85367 20.517C9.78834 20.3817 9.75567 20.223 9.75567 20.041C9.75567 19.8543 9.79067 19.6887 9.86067 19.544C9.93067 19.3947 10.0287 19.271 10.1547 19.173C10.2807 19.0703 10.4323 18.9933 10.6097 18.942C10.787 18.8907 10.983 18.865 11.1977 18.865C11.263 18.865 11.3353 18.8673 11.4147 18.872C11.494 18.872 11.571 18.8743 11.6457 18.879C11.7297 18.8837 11.816 18.8883 11.9047 18.893V18.816C11.9047 18.6527 11.8393 18.5243 11.7087 18.431C11.578 18.3377 11.4077 18.291 11.1977 18.291C10.9643 18.291 10.7777 18.3213 10.6377 18.382C10.4977 18.4427 10.374 18.508 10.2667 18.578L9.88867 18.018C9.954 17.9713 10.0287 17.9247 10.1127 17.878C10.1967 17.8267 10.2947 17.7823 10.4067 17.745C10.5187 17.703 10.647 17.6703 10.7917 17.647C10.941 17.619 11.1137 17.605 11.3097 17.605C11.5197 17.605 11.7087 17.6353 11.8767 17.696C12.0493 17.752 12.1963 17.8337 12.3177 17.941C12.439 18.0437 12.5323 18.1697 12.5977 18.319C12.663 18.4637 12.6957 18.6223 12.6957 18.795V21H11.9257L11.9047 20.692ZM11.9047 19.516C11.8207 19.5113 11.739 19.5067 11.6597 19.502C11.5943 19.4973 11.5243 19.495 11.4497 19.495C11.3797 19.4903 11.319 19.488 11.2677 19.488C11.0017 19.488 10.815 19.5417 10.7077 19.649C10.6003 19.7517 10.5467 19.8707 10.5467 20.006C10.5467 20.146 10.5957 20.2557 10.6937 20.335C10.7963 20.4143 10.9457 20.454 11.1417 20.454C11.2397 20.454 11.333 20.4377 11.4217 20.405C11.515 20.3723 11.5967 20.328 11.6667 20.272C11.7367 20.216 11.7927 20.1507 11.8347 20.076C11.8813 20.0013 11.9047 19.922 11.9047 19.838V19.516ZM13.673 18.389H13.113V17.717H13.673V16.653H14.499V17.717H15.381V18.389H14.499V19.824C14.499 20.0107 14.5293 20.1553 14.59 20.258C14.6553 20.356 14.758 20.405 14.898 20.405C15.0287 20.405 15.1313 20.3863 15.206 20.349C15.2853 20.3117 15.36 20.2673 15.43 20.216L15.78 20.727C15.6167 20.8623 15.4557 20.958 15.297 21.014C15.1383 21.0747 14.961 21.105 14.765 21.105C14.5643 21.105 14.394 21.0747 14.254 21.014C14.114 20.958 13.9997 20.8763 13.911 20.769C13.827 20.6617 13.7663 20.5333 13.729 20.384C13.6917 20.23 13.673 20.062 13.673 19.88V18.389ZM16.1164 16.331H16.9984V17.199H16.1164V16.331ZM16.1444 17.717H16.9704V21H16.1444V17.717ZM17.7184 17.717H18.5094L18.5304 18.088C18.5724 18.0413 18.6214 17.9923 18.6774 17.941C18.7381 17.8897 18.8081 17.843 18.8874 17.801C18.9714 17.7543 19.0647 17.717 19.1674 17.689C19.2701 17.661 19.3867 17.647 19.5174 17.647C19.9281 17.647 20.2407 17.7707 20.4554 18.018C20.6701 18.2607 20.7774 18.5897 20.7774 19.005V21H19.9514V19.012C19.9514 18.802 19.8931 18.641 19.7764 18.529C19.6644 18.4123 19.5174 18.354 19.3354 18.354C19.2234 18.354 19.1184 18.3773 19.0204 18.424C18.9224 18.466 18.8384 18.5267 18.7684 18.606C18.6984 18.6853 18.6424 18.7787 18.6004 18.886C18.5631 18.9887 18.5444 19.1007 18.5444 19.222V21H17.7184V17.717ZM21.4599 17.717H22.2859V19.705C22.2859 19.915 22.3419 20.0783 22.4539 20.195C22.5705 20.307 22.7199 20.363 22.9019 20.363C23.0139 20.363 23.1189 20.342 23.2169 20.3C23.3149 20.2533 23.3989 20.1903 23.4689 20.111C23.5389 20.0317 23.5925 19.9407 23.6299 19.838C23.6719 19.7307 23.6929 19.6163 23.6929 19.495V17.717H24.5189V21H23.7279L23.7069 20.629C23.6649 20.6757 23.6135 20.7247 23.5529 20.776C23.4922 20.8273 23.4222 20.8763 23.3429 20.923C23.2635 20.965 23.1725 21 23.0699 21.028C22.9672 21.056 22.8505 21.07 22.7199 21.07C22.3092 21.07 21.9965 20.9487 21.7819 20.706C21.5672 20.4587 21.4599 20.1273 21.4599 19.712V17.717ZM25.2293 17.717H26.0203L26.0413 18.088C26.0833 18.0413 26.13 17.9923 26.1813 17.941C26.2373 17.885 26.3027 17.836 26.3773 17.794C26.4567 17.752 26.5453 17.717 26.6433 17.689C26.746 17.661 26.8627 17.647 26.9933 17.647C27.4273 17.647 27.7563 17.8057 27.9803 18.123C28.1483 17.9503 28.3187 17.829 28.4913 17.759C28.6687 17.6843 28.874 17.647 29.1073 17.647C29.5227 17.647 29.84 17.7707 30.0593 18.018C30.2833 18.2607 30.3953 18.5897 30.3953 19.005V21H29.5693V19.012C29.5693 18.802 29.5157 18.641 29.4083 18.529C29.3057 18.4123 29.1633 18.354 28.9813 18.354C28.8693 18.354 28.7667 18.3773 28.6733 18.424C28.58 18.466 28.4983 18.5267 28.4283 18.606C28.363 18.6853 28.3117 18.7787 28.2743 18.886C28.2417 18.9887 28.2253 19.1007 28.2253 19.222V21H27.3993V19.012C27.3993 18.802 27.3457 18.641 27.2383 18.529C27.1357 18.4123 26.9933 18.354 26.8113 18.354C26.6993 18.354 26.5967 18.3773 26.5033 18.424C26.41 18.466 26.3283 18.5267 26.2583 18.606C26.193 18.6853 26.1417 18.7787 26.1043 18.886C26.0717 18.9887 26.0553 19.1007 26.0553 19.222V21H25.2293V17.717Z" fill="#71757A"/>
</g>
<defs>
<linearGradient id="paint_platinum" x1="17.5" y1="0" x2="17.5" y2="25" gradientUnits="userSpaceOnUse">
<stop stop-color="#E7E6E1"/>
<stop offset="1" stop-color="#B7B4A9"/>
</linearGradient>
</defs>
</svg>
